<svg id="Layer_1" height="512" viewBox="0 0 128 128" width="512" xmlns="http://www.w3.org/2000/svg" data-name="Layer 1"><path d="m64 21.325a1.75 1.75 0 0 1 -1.75-1.75v-6.575a1.75 1.75 0 0 1 3.5 0v6.575a1.75 1.75 0 0 1 -1.75 1.75z" fill="#d96200"/><path d="m115 100.34v14.66h-102v-14.66a25.594 25.594 0 0 1 25.59-25.59h50.82a25.594 25.594 0 0 1 25.59 25.59z" fill="#ffffed"/><path d="m89.405 74.75h-25.405v40.25h51v-14.655a25.6 25.6 0 0 0 -25.595-25.595z" fill="#fff0c3"/><path d="m89.405 74.75h-50.81a25.542 25.542 0 0 0 -8.476 1.443c.014.021 10.397 15.307 33.881 15.307s33.867-15.286 33.881-15.307a25.542 25.542 0 0 0 -8.476-1.443z" fill="#98f8ff"/><path d="m96.92 100v15h-3.5v-15a1.75 1.75 0 0 1 3.5 0z" fill="#ffffed"/><path d="m34.58 100v15h-3.5v-15a1.75 1.75 0 0 1 3.5 0z" fill="#fff0c3"/><circle cx="33.812" cy="49.762" fill="#ffe668" r="5.692"/><circle cx="94.188" cy="49.762" fill="#ffcf00" r="5.692"/><circle cx="64" cy="49.762" fill="#ffffed" r="30.188"/><path d="m87.228 49.762c0 12.829-10.4 16.638-23.228 16.638s-23.228-3.809-23.228-16.638a23.228 23.228 0 0 1 46.456 0z" fill="#98f8ff"/><path d="m13 102.583h9.75v6.667h-9.75z" fill="#99da03"/><path d="m18.622 94.875a8.742 8.742 0 0 0 5.436-15.592 25.628 25.628 0 0 0 -10.126 14.217 8.7 8.7 0 0 0 4.69 1.375z" fill="#ff415a"/><path d="m46.917 104.833h34.167v10.167h-34.167z" fill="#98f8ff"/><path d="m114.313 94.463a8.06 8.06 0 0 0 .687 16.09v-10.208a25.645 25.645 0 0 0 -.687-5.882z" fill="#ce0050"/><path d="m97.881 76.193a25.542 25.542 0 0 0 -8.476-1.443h-25.405v16.75c23.484 0 33.867-15.286 33.881-15.307z" fill="#01d9e0"/><path d="m94.188 49.762a30.188 30.188 0 0 0 -30.188-30.187v60.375a30.188 30.188 0 0 0 30.188-30.188z" fill="#fff0c3"/><path d="m87.228 49.762a23.228 23.228 0 0 0 -23.228-23.228v39.866c12.828 0 23.228-3.809 23.228-16.638z" fill="#01d9e0"/><path d="m78.079 31.292-19.319 34.862c1.685.165 3.437.243 5.24.243.275 0 .547 0 .82-.008l17.28-31.18a23.357 23.357 0 0 0 -4.021-3.917z" fill="#fff"/><path d="m53.986 65.39 20.223-36.49a23.129 23.129 0 0 0 -10.209-2.366c-.293 0-.584.011-.875.022l-18.707 33.758a18.253 18.253 0 0 0 9.568 5.076z" fill="#fff"/><path d="m64 104.833h17.083v10.167h-17.083z" fill="#01d9e0"/><g fill="#28092d"><path d="m115.994 93.979v-.015a27.446 27.446 0 0 0 -17.43-19.382l-.028-.009a27.214 27.214 0 0 0 -9.131-1.573h-3.53a31.779 31.779 0 0 0 9.85-26.867 3.946 3.946 0 0 1 2.1 5.163 1.75 1.75 0 1 0 3.224 1.363 7.441 7.441 0 0 0 -5.978-10.283 32 32 0 0 0 -29.316-24.5v-4.876a1.75 1.75 0 0 0 -3.5 0v4.877a31.756 31.756 0 0 0 -9.478 1.977 1.75 1.75 0 0 0 1.223 3.277 28.467 28.467 0 1 1 -11.061 7.52 1.75 1.75 0 1 0 -2.588-2.351 31.852 31.852 0 0 0 -7.426 14.081 7.437 7.437 0 0 0 .009 14.77 31.9 31.9 0 0 0 48.502 19.349h7.969a23.807 23.807 0 0 1 5.438.633 36.658 36.658 0 0 1 -7.523 6.222 1.75 1.75 0 1 0 1.862 2.963 38.933 38.933 0 0 0 9.286-8.023 23.959 23.959 0 0 1 13.66 14.829 9.8 9.8 0 0 0 1.121 19.015v2.861a1.75 1.75 0 0 0 3.5 0v-14.655a27.3 27.3 0 0 0 -.755-6.366zm-86.124-44.217a3.948 3.948 0 0 1 2.406-3.63 31.018 31.018 0 0 0 0 7.26 3.948 3.948 0 0 1 -2.406-3.63zm78.817 52.729a6.35 6.35 0 0 1 4.255-5.954 23.905 23.905 0 0 1 .308 3.808v8.206a6.319 6.319 0 0 1 -4.563-6.06z"/><path d="m81.09 86.545q-.382.155-.775.306a1.75 1.75 0 1 0 1.253 3.268q.425-.163.839-.332a1.75 1.75 0 1 0 -1.317-3.242z"/><path d="m95.167 98.25a1.75 1.75 0 0 0 -1.75 1.75v15a1.75 1.75 0 0 0 3.5 0v-15a1.75 1.75 0 0 0 -1.75-1.75z"/><path d="m32.833 98.25a1.75 1.75 0 0 0 -1.75 1.75v15a1.75 1.75 0 0 0 3.5 0v-15a1.75 1.75 0 0 0 -1.75-1.75z"/><path d="m46.689 26.779a1.74 1.74 0 0 0 1-.317q.3-.212.61-.417a1.75 1.75 0 1 0 -1.936-2.916q-.345.229-.684.466a1.75 1.75 0 0 0 1.006 3.183z"/><path d="m39.022 49.762c0 15.2 13.583 18.385 24.978 18.385 20.645 0 24.978-10 24.978-18.385a24.978 24.978 0 0 0 -49.956 0zm36.761-17.937-9.47 17.089a1.75 1.75 0 1 0 3.062 1.7l9.192-16.587q.733.679 1.4 1.423l-16.182 29.2c-.612 0-1.344 0-2.173-.027l4.74-8.552a1.75 1.75 0 0 0 -3.062-1.7l-5.525 9.97c-.367-.044-.737-.093-1.113-.151l18.237-32.91c.3.179.602.353.894.545zm-7.923 32.689 14.405-26a21.317 21.317 0 0 1 3.213 11.244c0 3.45-.002 13.486-17.618 14.756zm-7.913-35.834-12.96 23.389a1.75 1.75 0 1 0 3.062 1.7l14.115-25.476a21.331 21.331 0 0 1 7.572 1.456l-18.653 33.659c-5.43-1.6-10.561-5.26-10.561-13.646a21.5 21.5 0 0 1 17.425-21.082z"/><path d="m81.083 103.083h-15.333v-9.883a50.576 50.576 0 0 0 9.556-1.186 1.75 1.75 0 1 0 -.776-3.414 47.63 47.63 0 0 1 -10.53 1.15c-17.244 0-27.194-8.668-30.834-12.619a23.809 23.809 0 0 1 5.429-.631 1.75 1.75 0 0 0 0-3.5 27.214 27.214 0 0 0 -9.09 1.559c-.021.008-.042.013-.063.021a27.388 27.388 0 0 0 -18.192 25.765v14.655a1.75 1.75 0 0 0 3.5 0v-10.667h6.25v3.167h-3.125a1.75 1.75 0 0 0 0 3.5h4.875a1.75 1.75 0 0 0 1.75-1.75v-6.667a1.75 1.75 0 0 0 -1.75-1.75h-8v-.489a23.861 23.861 0 0 1 .4-4.339 10.424 10.424 0 0 0 13.966-9.877 1.75 1.75 0 0 0 -3.5 0 7 7 0 0 1 -7 7 6.928 6.928 0 0 1 -2.578-.513 23.962 23.962 0 0 1 13.487-14.315 37.89 37.89 0 0 0 7.738 7 46.156 46.156 0 0 0 24.987 7.913v21.787a1.75 1.75 0 0 0 3.5 0v-8.417h13.583v8.417a1.75 1.75 0 0 0 3.5 0v-10.167a1.75 1.75 0 0 0 -1.75-1.75z"/><path d="m56.667 103.083h-9.75a1.75 1.75 0 0 0 -1.75 1.75v10.167a1.75 1.75 0 0 0 3.5 0v-8.417h8a1.75 1.75 0 0 0 0-3.5z"/></g></svg>